<?xml version="1.0" standalone="no"?>
<!DOCTYPE svg PUBLIC "-//W3C//DTD SVG 20010904//EN"
 "http://www.w3.org/TR/2001/REC-SVG-20010904/DTD/svg10.dtd">
<svg version="1.0" xmlns="http://www.w3.org/2000/svg"
 width="200.000000pt" height="200.000000pt" viewBox="0 0 200.000000 200.000000"
 preserveAspectRatio="xMidYMid meet">

<g transform="translate(0.000000,200.000000) scale(0.100000,-0.100000)"
fill="#000000" stroke="none">
<path d="M980 1775 c0 -36 -22 -74 -65 -115 -20 -19 -43 -47 -51 -62 -8 -16
-21 -28 -30 -28 -8 0 -32 -18 -53 -40 -21 -22 -45 -40 -54 -40 -13 0 -17 -9
-17 -34 0 -34 0 -34 -40 -29 -36 5 -40 4 -40 -16 0 -28 -22 -51 -49 -51 -21 0
-21 -4 -21 -218 0 -214 0 -219 23 -240 30 -29 74 -44 126 -44 33 0 56 -7 86
-28 54 -37 192 -110 208 -110 19 0 145 63 210 104 48 31 68 38 115 39 41 2 66
8 90 25 l32 23 0 225 c0 217 -1 224 -20 224 -11 0 -20 7 -20 15 0 8 -6 14 -12
13 -7 -2 -14 8 -16 21 -3 21 -7 23 -43 17 -39 -6 -39 -6 -39 26 0 27 -6 36
-30 46 -16 7 -38 28 -50 47 -11 18 -28 32 -37 31 -11 -1 -19 9 -23 29 -9 39
-38 95 -50 95 -5 0 -12 -9 -15 -20 -10 -31 -22 -24 -29 19 -4 25 -17 51 -37
70 -37 38 -49 39 -49 6z m46 -37 c10 -18 22 -53 29 -78 l11 -45 27 28 28 27 9
-26 c6 -14 10 -40 10 -58 0 -36 -38 -118 -58 -124 -11 -3 -10 3 2 27 18 34 13
53 -24 86 -13 11 -28 33 -35 49 l-13 30 -16 -32 c-9 -17 -16 -38 -16 -47 0 -8
-5 -15 -11 -15 -5 0 -7 -4 -4 -10 12 -19 32 -10 28 13 -2 12 1 29 7 37 8 12
16 8 45 -24 56 -63 41 -116 -32 -116 -53 0 -67 18 -61 75 3 25 2 47 -2 50 -13
8 -21 -61 -10 -89 13 -35 13 -36 -5 -36 -16 0 -38 38 -49 83 -8 34 4 59 61
119 24 26 46 61 49 78 4 16 8 30 10 30 2 0 11 -15 20 -32z m146 -240 c-12 -12
-24 -19 -28 -16 -3 4 4 16 16 28 12 12 24 19 28 16 3 -4 -4 -16 -16 -28z
m-312 7 c7 -9 10 -18 7 -22 -8 -7 -37 15 -37 28 0 14 16 11 30 -6z m-32 -32
c5 -18 -20 -16 -44 2 -18 15 -18 15 10 13 16 -2 31 -9 34 -15z m398 2 c-27
-21 -53 -20 -36 0 7 8 22 15 34 15 21 -1 21 -1 2 -15z m-446 -25 c13 -9 13
-10 0 -10 -8 0 -22 5 -30 10 -13 9 -13 10 0 10 8 0 22 -5 30 -10z m485 0 c-3
-5 -13 -10 -21 -10 -8 0 -12 5 -9 10 3 6 13 10 21 10 8 0 12 -4 9 -10z m-147
-22 c-3 -22 -8 -23 -103 -26 -104 -2 -132 5 -122 32 5 13 25 16 117 16 110 0
111 0 108 -22z m-303 -38 c-18 -19 -17 -20 1 -20 15 -1 13 -4 -9 -16 -34 -18
-47 -11 -47 24 1 26 1 26 15 8 13 -17 15 -17 15 -3 0 9 8 20 17 26 25 14 29 4
8 -19z m428 2 c3 7 6 2 6 -12 1 -15 -5 -32 -11 -39 -11 -10 -10 -12 2 -9 8 2
20 10 27 18 11 13 12 12 13 -7 0 -12 -4 -25 -10 -28 -5 -3 -10 -11 -10 -17 0
-7 6 -6 15 2 23 19 20 -13 -3 -34 -18 -15 -20 -15 -35 1 -8 10 -17 32 -19 48
-2 17 -10 35 -18 42 -13 11 -13 12 0 13 11 0 11 3 2 12 -7 7 -12 19 -12 27 0
11 6 9 24 -8 18 -17 25 -19 29 -9z m-563 -188 c0 -151 3 -196 13 -200 7 -2 42
4 78 16 81 25 189 28 189 4 0 -13 -7 -15 -31 -10 -17 3 -69 -3 -120 -14 -49
-11 -102 -20 -118 -20 -25 0 -29 4 -35 38 -8 48 -8 306 0 354 14 84 24 15 24
-168z m676 -211 c-7 -18 -52 -16 -155 7 -53 12 -103 17 -122 13 -25 -5 -31 -3
-27 8 8 23 105 23 189 0 51 -15 76 -18 84 -10 6 6 10 80 9 197 0 123 3 189 10
194 11 7 22 -382 12 -409z m-394 372 c3 -14 1 -25 -3 -25 -5 0 -9 4 -9 9 0 5
-3 16 -6 25 -3 9 -2 16 4 16 5 0 12 -11 14 -25z m38 0 c0 -14 -4 -25 -10 -25
-5 0 -10 11 -10 25 0 14 5 25 10 25 6 0 10 -11 10 -25z m40 13 c0 -7 -5 -20
-10 -28 -8 -12 -10 -9 -10 13 0 15 5 27 10 27 6 0 10 -6 10 -12z m33 -8 c-6
-22 -23 -38 -23 -21 0 17 12 41 20 41 5 0 6 -9 3 -20z m-439 -175 c-8 -182 -2
-231 25 -240 11 -3 65 4 122 16 113 23 158 21 201 -11 l27 -20 37 25 c45 30
63 31 190 4 152 -31 144 -42 144 196 0 123 4 195 10 195 11 0 14 -260 4 -359
-6 -55 -10 -62 -32 -68 -14 -3 -66 4 -116 16 -118 28 -164 27 -208 -3 l-36
-24 -20 21 c-31 31 -111 34 -203 8 -85 -24 -129 -27 -147 -9 -16 16 -17 432
-1 423 7 -5 8 -58 3 -170z m154 140 c25 6 26 5 11 -12 -9 -10 -15 -23 -12 -29
2 -6 -5 -18 -16 -28 -19 -17 -20 -17 -37 8 -19 31 -14 44 9 21 9 -8 18 -11 21
-6 3 5 -1 11 -9 15 -8 3 -15 18 -15 33 1 25 2 26 11 10 8 -14 18 -17 37 -12z
m-188 -198 c0 -201 0 -204 23 -214 44 -22 56 -21 143 3 49 13 106 24 127 24
44 0 92 -22 101 -46 5 -13 11 -11 41 15 44 38 100 41 201 10 81 -25 126 -27
159 -5 l25 16 0 200 c0 134 3 200 11 200 7 0 10 -65 8 -201 -2 -167 -5 -204
-18 -220 -24 -29 -69 -38 -121 -24 -25 7 -71 20 -104 28 -68 19 -110 8 -139
-37 -24 -36 -82 -37 -98 -2 -24 52 -77 60 -184 27 -87 -27 -144 -27 -173 -1
-21 20 -22 28 -22 225 0 130 4 205 10 205 6 0 10 -74 10 -203z m285 173 c9
-16 13 -30 11 -30 -3 0 -12 14 -21 30 -9 17 -13 30 -11 30 3 0 12 -13 21 -30z
m265 22 c0 -5 -7 -17 -15 -28 -14 -18 -14 -17 -4 9 12 27 19 34 19 19z m-66
-21 c12 -19 -24 -32 -84 -29 -61 2 -77 9 -65 28 8 12 142 13 149 1z m-203 -53
c19 -25 25 -37 14 -28 -35 25 -67 70 -51 70 2 0 19 -19 37 -42z m290 25 c-11
-21 -71 -80 -71 -70 0 8 70 87 77 87 2 0 -1 -8 -6 -17z m-369 -60 c6 -7 7 -24
4 -38 -8 -31 -36 -33 -62 -3 -18 21 -18 21 0 15 19 -8 46 8 46 25 0 6 -7 5
-16 -2 -13 -11 -19 -10 -37 10 l-22 22 26 -6 c20 -4 29 -1 35 12 6 15 8 15 12
-3 2 -11 9 -26 14 -32z m192 31 c10 -26 7 -219 -3 -209 -13 14 -26 225 -13
225 5 0 13 -7 16 -16z m50 -56 c-14 -154 -22 -169 -23 -45 -1 98 1 117 14 117
13 0 14 -12 9 -72z m201 52 c4 -6 16 -8 27 -4 25 8 21 -14 -6 -30 -13 -9 -20
-7 -32 8 -8 11 -14 23 -14 28 0 12 18 10 25 -2z m-349 -67 l37 -48 -41 40
c-37 34 -51 55 -38 55 2 0 21 -21 42 -47z m254 20 c-11 -15 -31 -33 -43 -41
-12 -8 -4 4 18 26 45 48 56 55 25 15z m80 2 c0 -9 8 -12 25 -9 43 8 24 -27
-21 -38 -18 -4 -21 0 -23 34 -1 26 2 37 9 33 5 -3 10 -12 10 -20z m-400 -40
c0 -8 7 -15 15 -15 18 0 38 -37 31 -56 -6 -16 -66 -20 -66 -4 0 6 8 10 18 10
10 0 19 7 19 14 0 11 -5 13 -19 5 -13 -7 -26 -5 -45 5 l-28 15 28 1 c20 0 27
5 27 20 0 11 5 20 10 20 6 0 10 -7 10 -15z m401 -25 l24 -6 -23 -13 c-31 -16
-52 -7 -52 22 0 31 13 43 21 20 3 -10 17 -20 30 -23z m-58 -32 c-2 -5 3 -8 11
-8 9 0 16 -4 16 -10 0 -11 -30 -13 -54 -4 -15 6 -12 27 8 52 8 11 11 10 17 -5
3 -10 5 -21 2 -25z m-432 -23 c9 6 11 4 6 -8 -3 -9 -1 -18 6 -21 7 -2 2 -5 -9
-5 -21 -1 -34 16 -34 42 0 8 4 7 9 -2 5 -8 14 -10 22 -6z m555 -20 c-3 -8 -16
-15 -28 -15 -17 0 -19 3 -9 9 8 5 10 14 5 22 -6 12 -5 12 9 0 15 -12 17 -11
18 5 0 11 3 14 6 6 3 -7 2 -19 -1 -27z m-260 -52 c-11 -11 -45 -13 -51 -3 -4
6 7 10 26 10 18 0 29 -3 25 -7z m-16 -33 c0 -5 -4 -10 -9 -10 -6 0 -13 5 -16
10 -3 6 1 10 9 10 9 0 16 -4 16 -10z m-195 -110 c-3 -5 -11 -10 -16 -10 -6 0
-7 5 -4 10 3 6 11 10 16 10 6 0 7 -4 4 -10z m385 0 c8 -5 11 -10 5 -10 -5 0
-17 5 -25 10 -8 5 -10 10 -5 10 6 0 17 -5 25 -10z m-339 -20 c-30 -26 -49 -26
-26 0 10 11 25 20 34 20 12 -1 10 -5 -8 -20z m299 5 c21 -25 1 -31 -22 -7 -18
18 -19 22 -6 22 8 0 21 -7 28 -15z m-249 -13 c-14 -26 -41 -48 -41 -33 0 11
35 51 45 51 3 0 1 -8 -4 -18z m217 -38 c-8 -8 -48 32 -48 48 0 7 12 0 27 -14
15 -15 24 -30 21 -34z m-171 -14 c-1 -11 -8 -20 -16 -20 -12 0 -12 3 -3 12 15
15 16 31 0 22 -7 -4 -8 -3 -4 5 10 16 25 4 23 -19z m73 15 c-2 -5 -10 -9 -16
-7 -6 1 -14 -4 -18 -13 -8 -21 -26 -19 -26 3 0 10 2 21 5 23 9 10 60 4 55 -6z
m40 -7 c0 -18 -6 -23 -30 -25 -17 -1 -30 2 -30 8 0 6 5 7 11 4 6 -4 17 2 25
14 19 27 24 26 24 -1z"/>
<path d="M991 794 c0 -11 3 -14 6 -6 3 7 2 16 -1 19 -3 4 -6 -2 -5 -13z"/>
</g>
</svg>
